<svg width="30" height="38" viewBox="0 0 30 38" fill="none" xmlns="http://www.w3.org/2000/svg">
<path d="M25.8987 19.2871L19.7492 15.8404L28.2948 7.29475L28.6484 6.94119L28.2948 6.58764L27.4111 5.70389L27.0575 5.35034L26.7039 5.70389L17.7104 14.6974L15.5084 13.4632L17.3838 2.69848C17.3838 2.6984 17.3838 2.69833 17.3838 2.69826C17.4733 2.18562 17.2005 1.67535 16.7168 1.47101C16.2378 1.26632 15.6817 1.41901 15.3712 1.83666L15.3702 1.838L3.74397 17.588L3.74293 17.5894C3.55383 17.8475 3.48038 18.177 3.55012 18.4947C3.61867 18.8141 3.82248 19.0834 4.10342 19.2395L4.10429 19.24L9.94052 22.4673L1.70394 30.7039L1.35039 31.0574L1.70394 31.411L2.58769 32.2947L2.94125 32.6483L3.2948 32.2947L11.9899 23.5996L14.2458 24.8472L11.9755 35.2524C11.9754 35.2524 11.9754 35.2524 11.9754 35.2525C11.8628 35.764 12.118 36.2824 12.5879 36.5072L12.588 36.5073C12.7432 36.5815 12.9096 36.6174 13.0737 36.6174C13.4036 36.6174 13.7294 36.4717 13.9498 36.1996L13.9505 36.1988L26.2255 20.9738L26.2267 20.9723C26.433 20.7143 26.5155 20.3805 26.4553 20.0572L26.4553 20.0572L26.4544 20.0526C26.3912 19.7299 26.1886 19.4489 25.8987 19.2871ZM13.7125 15.037L13.7132 15.0374L16.0582 16.3509L11.5976 20.8115L6.31708 17.892L14.3487 7.01079L13.1552 13.8615C13.1551 13.8618 13.155 13.8622 13.155 13.8625C13.0718 14.3347 13.2982 14.8041 13.7125 15.037ZM18.0958 17.4937L23.638 20.5993L15.19 31.0775L16.6235 24.5078L16.6236 24.5075C16.7292 24.0222 16.5045 23.5248 16.0699 23.2839L16.0694 23.2836L13.6458 21.9438L18.0958 17.4937Z" fill="#52E0FF" stroke="#52E0FF"/>
</svg>
